HIERARCHY
ROOT Hips
{
	OFFSET -14.64140 90.27770 -84.91600
	CHANNELS 6 Xposition Yposition Zposition Zrotation Xrotation Yrotation
	JOINT Spine
	{
		OFFSET 0.00000 13.20850 -1.60436
		CHANNELS 3 Zrotation Xrotation Yrotation
		JOINT Spine1
		{
			OFFSET 0.00000 8.61716 0.00000
			CHANNELS 3 Zrotation Xrotation Yrotation
			JOINT Spine2
			{
				OFFSET 0.00000 8.61717 0.00000
				CHANNELS 3 Zrotation Xrotation Yrotation
				JOINT Spine3
				{
					OFFSET 0.00000 8.61717 0.00000
					CHANNELS 3 Zrotation Xrotation Yrotation
					JOINT Neck
					{
						OFFSET 0.00000 11.07920 1.10792
						CHANNELS 3 Zrotation Xrotation Yrotation
						JOINT Neck1
						{
							OFFSET 0.00000 7.08032 0.00000
							CHANNELS 3 Zrotation Xrotation Yrotation
							JOINT Head
							{
								OFFSET 0.00000 7.08031 0.00000
								CHANNELS 3 Zrotation Xrotation Yrotation
								End site
								{
									OFFSET 0.00000 0.00000 0.00000
								}
							}
						}
					}
					JOINT RightShoulder
					{
						OFFSET -0.01000 7.91373 5.19711
						CHANNELS 3 Zrotation Xrotation Yrotation
						JOINT RightArm
						{
							OFFSET -18.41580 0.00000 0.00000
							CHANNELS 3 Zrotation Xrotation Yrotation
							JOINT RightForeArm
							{
								OFFSET -29.11090 0.00000 0.00000
								CHANNELS 3 Zrotation Xrotation Yrotation
								JOINT RightHand
								{
									OFFSET -24.65040 0.00000 0.00000
									CHANNELS 3 Zrotation Xrotation Yrotation
									JOINT RightHandThumb1
									{
										OFFSET -5.35114 -0.85590 3.97906
										CHANNELS 3 Zrotation Xrotation Yrotation
										JOINT RightHandThumb2
										{
											OFFSET -4.52789 0.00000 0.00000
											CHANNELS 3 Zrotation Xrotation Yrotation
											JOINT RightHandThumb3
											{
												OFFSET -2.46976 0.00000 0.00000
												CHANNELS 3 Zrotation Xrotation Yrotation
												End site
												{
													OFFSET 0.00000 0.00000 0.00000
												}
											}
										}
									}
									JOINT RightHandIndex1
									{
										OFFSET -14.26970 0.00000 2.88139
										CHANNELS 3 Zrotation Xrotation Yrotation
										JOINT RightHandIndex2
										{
											OFFSET -5.48836 0.00000 0.00000
											CHANNELS 3 Zrotation Xrotation Yrotation
											JOINT RightHandIndex3
											{
												OFFSET -3.01859 0.00000 0.00000
												CHANNELS 3 Zrotation Xrotation Yrotation
												End site
												{
													OFFSET 0.00000 0.00000 0.00000
												}
											}
										}
									}
									JOINT RightHandMiddle1
									{
										OFFSET -14.26970 0.00000 -0.09147
										CHANNELS 3 Zrotation Xrotation Yrotation
										JOINT RightHandMiddle2
										{
											OFFSET -6.17441 0.00000 0.00000
											CHANNELS 3 Zrotation Xrotation Yrotation
											JOINT RightHandMiddle3
											{
												OFFSET -3.56743 0.00000 0.00000
												CHANNELS 3 Zrotation Xrotation Yrotation
												End site
												{
													OFFSET 0.00000 0.00000 0.00000
												}
											}
										}
									}
									JOINT RightHandRing1
									{
										OFFSET -12.69180 0.00000 -3.06433
										CHANNELS 3 Zrotation Xrotation Yrotation
										JOINT RightHandRing2
										{
											OFFSET -5.62556 0.00000 0.00000
											CHANNELS 3 Zrotation Xrotation Yrotation
											JOINT RightHandRing3
											{
												OFFSET -3.56744 0.00000 0.00000
												CHANNELS 3 Zrotation Xrotation Yrotation
												End site
												{
													OFFSET 0.00000 0.00000 0.00000
												}
											}
										}
									}
									JOINT RightHandPinky1
									{
										OFFSET -11.11390 0.00000 -6.03719
										CHANNELS 3 Zrotation Xrotation Yrotation
										JOINT RightHandPinky2
										{
											OFFSET -4.52789 0.00000 0.00000
											CHANNELS 3 Zrotation Xrotation Yrotation
											JOINT RightHandPinky3
											{
												OFFSET -2.46976 0.00000 0.00000
												CHANNELS 3 Zrotation Xrotation Yrotation
												End site
												{
													OFFSET 0.00000 0.00000 0.00000
												}
											}
										}
									}
								}
							}
						}
					}
					JOINT LeftShoulder
					{
						OFFSET 0.01000 7.91373 5.19711
						CHANNELS 3 Zrotation Xrotation Yrotation
						JOINT LeftArm
						{
							OFFSET 18.41580 0.00000 0.00000
							CHANNELS 3 Zrotation Xrotation Yrotation
							JOINT LeftForeArm
							{
								OFFSET 29.11090 0.00000 0.00000
								CHANNELS 3 Zrotation Xrotation Yrotation
								JOINT LeftHand
								{
									OFFSET 24.65040 0.00000 0.00000
									CHANNELS 3 Zrotation Xrotation Yrotation
									JOINT LeftHandThumb1
									{
										OFFSET 5.35114 -0.85590 3.97906
										CHANNELS 3 Zrotation Xrotation Yrotation
										JOINT LeftHandThumb2
										{
											OFFSET 4.52789 0.00000 0.00000
											CHANNELS 3 Zrotation Xrotation Yrotation
											JOINT LeftHandThumb3
											{
												OFFSET 2.46977 0.00000 0.00000
												CHANNELS 3 Zrotation Xrotation Yrotation
												End site
												{
													OFFSET 0.00000 0.00000 0.00000
												}
											}
										}
									}
									JOINT LeftHandIndex1
									{
										OFFSET 14.26970 0.00000 2.88139
										CHANNELS 3 Zrotation Xrotation Yrotation
										JOINT LeftHandIndex2
										{
											OFFSET 5.48836 0.00000 0.00000
											CHANNELS 3 Zrotation Xrotation Yrotation
											JOINT LeftHandIndex3
											{
												OFFSET 3.01859 0.00000 0.00000
												CHANNELS 3 Zrotation Xrotation Yrotation
												End site
												{
													OFFSET 0.00000 0.00000 0.00000
												}
											}
										}
									}
									JOINT LeftHandMiddle1
									{
										OFFSET 14.26970 0.00000 -0.09147
										CHANNELS 3 Zrotation Xrotation Yrotation
										JOINT LeftHandMiddle2
										{
											OFFSET 6.17440 0.00000 0.00000
											CHANNELS 3 Zrotation Xrotation Yrotation
											JOINT LeftHandMiddle3
											{
												OFFSET 3.56744 0.00000 0.00000
												CHANNELS 3 Zrotation Xrotation Yrotation
												End site
												{
													OFFSET 0.00000 0.00000 0.00000
												}
											}
										}
									}
									JOINT LeftHandRing1
									{
										OFFSET 12.69180 0.00000 -3.06433
										CHANNELS 3 Zrotation Xrotation Yrotation
										JOINT LeftHandRing2
										{
											OFFSET 5.62556 0.00000 0.00000
											CHANNELS 3 Zrotation Xrotation Yrotation
											JOINT LeftHandRing3
											{
												OFFSET 3.56744 0.00000 0.00000
												CHANNELS 3 Zrotation Xrotation Yrotation
												End site
												{
													OFFSET 0.00000 0.00000 0.00000
												}
											}
										}
									}
									JOINT LeftHandPinky1
									{
										OFFSET 11.11390 0.00000 -6.03719
										CHANNELS 3 Zrotation Xrotation Yrotation
										JOINT LeftHandPinky2
										{
											OFFSET 4.52789 0.00000 0.00000
											CHANNELS 3 Zrotation Xrotation Yrotation
											JOINT LeftHandPinky3
											{
												OFFSET 2.46976 0.00000 0.00000
												CHANNELS 3 Zrotation Xrotation Yrotation
												End site
												{
													OFFSET 0.00000 0.00000 0.00000
												}
											}
										}
									}
								}
							}
						}
					}
					JOINT pCube4
					{
						OFFSET 0.00000 10.91090 1.10792
						CHANNELS 3 Zrotation Xrotation Yrotation
						End site
						{
							OFFSET 0.00000 0.00000 0.00000
						}
					}
				}
			}
		}
	}
	JOINT RightUpLeg
	{
		OFFSET -9.98441 0.00000 0.00000
		CHANNELS 3 Zrotation Xrotation Yrotation
		JOINT RightLeg
		{
			OFFSET 0.00000 -42.11790 0.00000
			CHANNELS 3 Zrotation Xrotation Yrotation
			JOINT RightFoot
			{
				OFFSET 0.00000 -45.00020 -0.00001
				CHANNELS 3 Zrotation Xrotation Yrotation
				JOINT RightForeFoot
				{
					OFFSET 0.00000 -3.74820 0.00000
					CHANNELS 3 Zrotation Xrotation Yrotation
					JOINT RightToeBase
					{
						OFFSET 0.00000 0.06325 14.43120
						CHANNELS 3 Zrotation Xrotation Yrotation
						End site
						{
							OFFSET 0.00000 0.00000 0.00000
						}
					}
				}
			}
		}
	}
	JOINT LeftUpLeg
	{
		OFFSET 9.98441 0.00000 0.00000
		CHANNELS 3 Zrotation Xrotation Yrotation
		JOINT LeftLeg
		{
			OFFSET 0.00000 -42.11800 0.00000
			CHANNELS 3 Zrotation Xrotation Yrotation
			JOINT LeftFoot
			{
				OFFSET 0.00000 -45.00070 0.00000
				CHANNELS 3 Zrotation Xrotation Yrotation
				JOINT LeftForeFoot
				{
					OFFSET 0.00000 -3.74824 0.00000
					CHANNELS 3 Zrotation Xrotation Yrotation
					JOINT LeftToeBase
					{
						OFFSET 0.00000 0.06325 14.43110
						CHANNELS 3 Zrotation Xrotation Yrotation
						End site
						{
							OFFSET 0.00000 0.00000 0.00000
						}
					}
				}
			}
		}
	}
}
MOTION
Frames: 4
Frame Time: 0.050000
-0.04354729914230235 -0.03694813448784153 0.022353396030149675 -0.019640678869187325 0.03244200721862455 -0.0267083474823484 6.266285360044859 1.594524183099859 -2.490618312019361 -0.7455260658098218 3.462242974549772 0.36975016081392115 -0.5716405688312319 -1.248263805882398 1.6209650622573641 -0.26482418989594714 -0.495532986216372 -0.1398488107363118 0.17526285912949838 12.741632169734514 -1.7778127837952389 0.35049149953347813 0.03338805348790016 -4.342938432932193 1.036101031474852 -16.23450822433864 -0.39428406497420043 -10.813950630629442 3.675912379617356 -17.169028502743423 79.67041441734241 13.642120419122369 20.48500662183431 0.8175187807685569 -3.083362626936028 111.6560443975432 4.239929306622864 0.17365791043740533 1.7774253053017088 4.560799003990803 -0.09861646472420685 -1.6201501960313627 -0.021219473112119604 0.009040537226408274 -56.26016554753951 -0.012580398153081348 0.016740828247768052 -56.2036686272641 -38.76429429381543 -0.007454321853961312 -0.023248685089225618 0.00717628517133393 -0.015036400831038363 -0.02195866775857381 -0.012366965392174412 -1.5220452246609887e-05 0.0052596998997638455 -36.71678275457848 -0.042730914604316717 -0.03787020118793242 0.016131736907088905 -0.02544961298396356 -0.014807653880921812 -0.0031290520390868308 0.029678810737470664 0.028649463911138123 -19.800282490329042 -0.04839511509251528 -0.006939786205277204 0.022734482894832975 0.03781315694576881 -0.04000415911445537 -0.016230272348363214 -0.030055075463490556 0.003207577451723598 24.006736411517828 0.04753659425092109 0.003850527121639434 28.883888223347952 -0.03597005867875203 -0.005568713851468954 28.882005955271456 0.009117691529617339 0.017206798994395527 10.994138043844297 2.4609985461272235 14.853528243435424 -73.26559309848966 23.950130213954086 -18.763465678462865 6.982290983679725 -7.711197525413064 -101.53562472891127 -5.872257219848199 -4.920673906280761 -2.1267391000688916 -0.4305345494002994 0.06643855906802201 -8.086968967818061 -0.022146374752844814 -0.026372233868641192 44.55174925862596 -0.04893494140185131 0.049095403675483436 44.570902145199234 12.461296452747268 -0.04765503843322643 -0.016592885573212934 0.007342151466613601 0.0031866057895884262 0.005554962967565961 0.04445201825956029 0.0366374552463811 -0.006697007812975188 11.065943315570928 -0.03628605062011614 -0.021753062915875983 0.007952529431560745 -0.028830278741810624 0.010505674631148043 -0.03628304946728324 -0.03357670005431328 0.03351376441599995 4.737848227004963 -0.04763315368113125 0.00035475474627754615 -0.01720360217342328 0.01837239931790886 -0.03667122711279313 0.029442082055528136 -0.006124262616038568 -0.01348420882541942 -5.6240370717125705 0.0015441097089677232 -0.028243617248352327 -6.7264304189821855 -0.018814355879123577 0.02613046258476036 -6.683441220505594 -0.01821742263566496 -0.028145338556459502 0.024890607689613556 -0.022391489924901493 -0.028319774648963982 8.09210901926238 3.518178727178314 -19.22342801939652 0.014514747208965785 10.36515023966694 0.02278887958165268 -5.634821476139679 -15.701977820591717 3.233816754540639 -0.03115047195536067 -0.034993511698015026 0.013611915034561972 0.004180857579573991 4.715431862063739 -0.04824849194951018 12.487088427882751 -8.25730106995419 6.90238677950968 -0.004518184235258169 46.41356663427706 -0.0451537770959911 -4.311880302656412 -14.7852848725621 -3.842084162612394 -0.04704787141445849 -0.02380064449354663 0.04747327811712545 0.0440456265672798 -10.763700600208242 -0.009894352040315168 
0.022347293728337932 0.021734541803457935 -0.04935267357160217 -0.020330045366034697 -0.025468464613102967 0.013284584132328085 6.387735497745627 1.63484889996278 -2.515681262875284 -0.6852972300203791 3.476323203642791 0.3902730498178306 -0.517926926031872 -1.2561739406204078 1.756452654994713 -0.21692861631948343 -0.5290919501944463 -0.14093781822889026 0.26186396390510064 12.945842827861131 -1.9838323958550965 0.261235445082101 0.11692435896471888 -4.9867790256477145 1.0895373405714461 -16.209720207230777 -0.4089219170640148 -11.076547945567077 3.752583521974337 -17.084597059131045 78.10594462939756 12.081234101103368 22.37107643903094 1.1425550435985423 -2.8359135781143556 111.33043533677737 3.998184587106645 0.16791557880193422 1.8521939901206916 4.520834828397283 -0.1544197505700918 -1.610158700815471 -0.008440423371391068 -0.013872429880359662 -56.26363942636693 -0.049686261351807134 -0.013408181222215666 -56.228600751280275 -38.7484545929124 -0.007078907373779343 0.02101527761297976 0.027060294607607574 0.043891562213975915 -0.0031119122754247664 -0.01817727432628438 -0.028466327580492088 -0.04094570820814267 -36.65960798424303 -0.006290337107720536 0.021946692574241797 -0.042980260207871046 -0.010431796256791201 -0.02152170469144846 -0.038790293124035514 -0.04449833902626968 -0.004243980983915461 -19.75238531214308 0.034066935663445146 -0.0021201081176866815 0.030617290167735792 0.008480901732927247 -0.02566635444598502 -0.01518006737049189 -0.0386601609797736 -0.03299853056300275 24.028584290582998 -0.022818938463347715 -0.00745324963466663 28.824299805411016 0.0014873198869055464 0.0060577584300542985 28.910638858688767 0.004074305066425585 -0.018932932061743946 11.082179234173893 2.4775883051652405 14.9076232743962 -72.5425595510187 22.36969499733479 -19.684954328691656 6.839879450295089 -7.121685200826073 -101.30989427779095 -5.7126416838201886 -4.23921807402082 -2.6420913087995426 -0.4968508473247962 0.061348025753196596 -8.098001334801403 0.04768837345618751 0.04299417062603351 44.573816364253645 0.011107998562884714 -0.024547609481672828 44.56581395288471 12.445053188947194 0.016706011650744704 -0.022374936769592634 0.017476229166833085 0.005750770446004962 -0.02453594283026088 0.04415292218100109 -0.03036365243239893 -0.012939289362388494 11.093193576043635 -0.02023625894732331 0.003954485900918334 -0.00955710635494485 0.005742904350097123 0.012338328761361652 0.0355940478523624 0.006074344978940885 -0.04280832357658796 4.770329355511625 0.0027328403993293815 -0.007305355246059651 -0.0096262712337211 0.011002751204637708 -0.020405206803023497 -0.033639129759143974 0.049921097517657706 -0.04767788623868462 -5.6324159602908015 0.03884598236073264 0.034868228256369524 -6.715626361973789 -0.029598702702760212 -0.014478701227456725 -6.719453609288725 -0.034790575135720425 -0.0387354952764573 -0.04419551795803893 0.016264323228608633 -0.047502538051397154 8.05038393583064 3.471882963830488 -19.25063520689042 0.017876713230814977 10.390462523844924 0.003713152832067145 -5.579891608912084 -15.704699483392048 3.225478339207585 0.0041450550364961385 0.008604075469887255 -0.00019276885081788867 -0.000280479089700334 4.672600171297524 -0.033398784209632486 12.486881536483683 -8.282565177149612 6.859503615741904 0.033967356784944655 46.337209920412676 -0.047758786422447616 -4.351575977774547 -14.76921477748325 -3.8289365335698964 -0.008788799381470995 0.02640826083642808 -0.03252043126399626 0.030345922690936226 -10.777510236463645 0.004225836899863058 
0.04323294167639099 -0.041133904843291685 0.013813542945486361 0.01306101436119437 0.029571599116577443 0.029934220322190692 6.549038896860159 1.8192953280280246 -2.4696261711013188 -0.6743559295825609 3.541073669388698 0.38060808132732094 -0.5010573238307796 -1.240146135721677 1.9291158619544713 -0.16528129783698503 -0.5728624259775775 -0.07236948427015932 0.28150240356114603 13.3426684927555 -2.2463611896667377 0.2597004360984993 0.14060646262090212 -5.668262254523 1.0905247976698853 -16.066672902889458 -0.5088334098014338 -11.660929738540675 3.859079989631326 -16.962138679038933 76.12790871637667 10.08781017611824 25.28703883928585 0.6141242075507121 -2.76363786255155 110.78400291559727 3.8774993309694863 0.16650270256884062 2.0262253695965944 4.534953456841373 -0.13120640053181684 -1.5887435186729075 -0.014064018225404783 0.03333818893710483 -56.23718124739963 -0.026559906294417214 0.033181419893664924 -56.24408840893217 -38.737765256914194 -0.024503123916522904 0.010594403921644525 -0.010964954020237184 0.022695084116934394 -0.04570324636418884 -0.034311778980472205 -0.04416344067430469 0.004858219232228976 -36.71981307800146 -0.01725912751570238 0.04977542345065582 -0.008299078534099393 -0.012462029154532692 0.0149044076538161 0.046573398218977366 0.0009544557308087257 -0.00645945963734596 -19.803262321467013 -0.008283118588733287 -0.03821320467181676 -0.022173199357856763 -0.032518049922436704 0.006798903726930383 -0.03842598194030221 -0.018332621177947223 0.010600048118930873 24.038117122012515 0.006175676156482357 -0.02217767350136105 28.868546597682794 0.03313918717989959 0.04128794433161543 28.84391894811571 -0.015196656208139198 -0.034255806031001174 11.380778345379047 2.5731399434349855 14.882057942269348 -71.0989292389886 20.368056363761276 -21.85988540613209 8.115202327684406 -6.853760775542129 -101.6320013174933 -5.3921954073418545 -3.2077748729584927 -3.457530678536007 -0.48377522633543557 0.11205766263137165 -8.108115695913634 0.018645001051583832 0.026093081598107047 44.57029664233334 -0.03149614696211652 -0.032087128040919954 44.5368590411272 12.467767503501065 -0.029426298354868402 0.005849700196634723 -0.04076246469263328 0.019429125747128646 0.035299331981144356 -0.0144550675035727 -0.046530116060362815 -0.047062740092674145 11.083778102744377 0.04272491892669497 -0.044333292437367486 0.002540299212082924 -0.01812274888708781 -0.013350050649662208 -0.01260791805633673 -0.019650395377328257 0.0036994163369047164 4.733231216871724 0.018201649072021826 0.02656403737916267 -0.0021456805399457973 0.010230900350085871 0.022331753609783223 -0.0017148769227527175 0.001599835101755083 0.011369229056156551 -5.563397436034027 -0.04301710599112203 0.04977685568770034 -6.696836035655794 -0.04007618978156171 0.016516611492030396 -6.716556584796352 0.03922987794131437 -0.03589639979366153 0.042374560291771446 -0.03784034852836914 -0.046704727729364806 8.094592790319252 3.532086200004313 -19.201398456687176 0.000754912795159242 10.415368808794838 -0.025847963808547602 -5.601069125237822 -15.652151990193298 3.2398099086181773 -0.0292523551719565 0.005892241585300982 0.02709769511589589 0.007559019594728939 4.648329849877454 0.013526535096024634 12.430891893645027 -8.229398614426687 6.9159188949549915 -0.007967591588080376 46.38960738557286 -0.036645918356988036 -4.374415205208311 -14.742909248205049 -3.796327670527127 -0.04200541682595331 0.024694282493126923 0.04733623439901902 -0.0006610691119889494 -10.751520981317322 -0.04446244285758235 
-0.02372622437654423 -0.003725064918118295 0.01147509573061982 0.032435184401527414 -0.03650881816859789 -0.043185192712729054 6.626378960737397 1.9247720930050003 -2.431424959922196 -0.7336033659734383 3.586351548406953 0.36296884781336936 -0.5073771491412178 -1.2890376654611613 2.0348347776972298 -0.1871561516363609 -0.5200932350878231 -0.10879400243655372 0.3307414867418066 13.72027063047065 -2.4104616216980332 0.22272224845261077 0.23327824187890295 -6.343835655344058 1.1089774286953908 -15.980210326027072 -0.5913227797156396 -12.17393934088516 4.028912950205589 -16.768943712816135 74.07400646369233 8.812767000302673 28.528544255809276 -0.774534269285786 -2.8181018427177276 110.17700737842473 3.888604379582754 0.09920755889479141 2.1581341168530543 4.5581982702367565 -0.10135461134292545 -1.563205170392617 -0.04997214483495212 -0.013508287669081383 -56.227698447983464 0.009079755752628227 0.018723048479790828 -56.25013954871654 -38.76560538919917 0.011866976485547426 -0.026563609626065254 0.035539816374066203 -0.047295179438929 -0.011559625560349585 -0.021429012056105087 -0.027163115082003583 0.023806210028662973 -36.67799698846552 0.02241078797538698 -0.01679256405317446 -0.037554542182068607 0.007946686038056604 -0.010604391070977397 -0.03318549293674595 0.021387085052616096 -0.018926058735122042 -19.7155388420472 0.01737874165214052 -0.025523105192215536 0.040479480026276764 -0.023169856197996466 0.042702193700685884 -0.008331479868630755 -0.016480631799190043 -0.021599106261786103 24.069167671420875 0.02799535133448257 0.011925315719268822 28.876616621272586 0.005240597896686893 0.007393455113640008 28.870100668582882 -0.015810701125293532 0.01851053204148768 11.852488349100792 2.6739691831511756 14.883372204944454 -69.41425279323691 18.662842220757835 -24.709534191802142 10.275063444743818 -6.888043032046565 -102.43668449496788 -5.1521020886900635 -2.034663948902144 -4.169060992043208 -0.4985821731404523 0.04916547316406926 -8.092040009469908 0.025168338135683282 -0.04448734047444673 44.51897879195396 0.005394026078715122 -0.03854427768593464 44.57288034458999 12.466273606456484 -0.011612581647757698 -0.032397090379206614 0.026469741493365718 0.038546142956932206 -0.0040123132778821045 -0.04146481578681783 -0.009384803888767584 -0.011428191860581902 11.084499275279466 0.04247687344357588 -0.049354354177603366 0.04818491437233558 -0.007159178354413836 -0.042445527241212914 -0.00840561790218113 0.015176741296728082 -0.033545922768879514 4.811662578269523 -0.00020362370175411795 -0.01675754583144487 0.032400102227479646 0.009407111123777115 0.013259780415846247 -0.0051882552580295475 0.010786711507208313 -0.03845304076758241 -5.603258541777771 -0.013511662913737578 0.039553817231133465 -6.734433592096026 0.021756093951038502 -0.03205007170506294 -6.735188925086343 0.007668488084511046 0.048489223062924205 -0.008991365469415763 0.03135834990549937 0.04465888412067767 8.033097552621863 3.492677244259424 -19.198743804986986 0.04565770552104133 10.348345834847915 0.06176649536700106 -5.65863414093032 -15.638389450467528 3.1428779481986653 0.03399679135747061 -0.006791184045884313 0.032666250252014827 0.03148459478826726 4.66429980014126 -0.017892617763896352 12.467366576146123 -8.245762293097219 6.885010083844352 -0.04869611567567609 46.38266395572803 0.0102588441703995 -4.336256317249576 -14.77443399423009 -3.8759448528462235 -0.004744634858286003 -0.03747937331873403 0.034414356053335815 0.036385166417174965 -10.785460495231073 0.004236309990415962 
